REM MD5 b769e52d21189bee78fda2f4a2a74b47
FILE "Jockey Zero (Japan).bin" BINARY
  TRACK 01 MODE2/2352
    INDEX 01 00:00:00
  TRACK 02 AUDIO
    INDEX 00 28:52:31
    INDEX 01 28:54:31
  TRACK 03 AUDIO
    INDEX 00 33:09:32
    INDEX 01 33:11:32
  TRACK 04 AUDIO
    INDEX 00 35:41:36
    INDEX 01 35:43:36
REM LEADOUT 40:24:45
